<svg id="Layer_1" data-name="Layer 1" xmlns="http://www.w3.org/2000/svg" xmlns:xlink="http://www.w3.org/1999/xlink" viewBox="0 0 243 243.44"><defs><style>.cls-1{fill:url(#linear-gradient);}.cls-2{fill:url(#linear-gradient-2);}.cls-3{fill:url(#linear-gradient-3);}.cls-4{fill:url(#linear-gradient-4);}.cls-5{fill:#fff;}</style><linearGradient id="linear-gradient" x1="5.03" y1="244.34" x2="243.96" y2="5.4" gradientUnits="userSpaceOnUse"><stop offset="0" stop-color="#0e0534"/><stop offset="0.22" stop-color="#201446"/><stop offset="0.56" stop-color="#3a2562"/><stop offset="0.66" stop-color="#3f2967"/><stop offset="0.78" stop-color="#4d3475"/><stop offset="0.9" stop-color="#64458d"/><stop offset="0.99" stop-color="#7956a3"/></linearGradient><linearGradient id="linear-gradient-2" x1="5.03" y1="244.34" x2="243.97" y2="5.4" gradientUnits="userSpaceOnUse"><stop offset="0" stop-color="#0e0534"/><stop offset="0.56" stop-color="#3a2562"/><stop offset="0.66" stop-color="#3f2967"/><stop offset="0.78" stop-color="#4d3475"/><stop offset="0.9" stop-color="#64458d"/><stop offset="0.99" stop-color="#7956a3"/></linearGradient><linearGradient id="linear-gradient-3" x1="5.03" y1="244.34" x2="243.97" y2="5.4" xlink:href="#linear-gradient-2"/><linearGradient id="linear-gradient-4" x1="5.03" y1="244.34" x2="243.97" y2="5.4" xlink:href="#linear-gradient-2"/></defs><path class="cls-1" d="M3,10.31V239.43a6.94,6.94,0,0,0,6.94,6.94H239.06a6.94,6.94,0,0,0,6.94-6.94v-110a15.43,15.43,0,0,0-3.92-9.48L129.45,7.29A15.43,15.43,0,0,0,120,3.37H9.94A6.94,6.94,0,0,0,3,10.31Z" transform="translate(-3 -2.93)"/><path class="cls-2" d="M239.06,3.37H224.18c-3.06,0-3.79,1.76-1.62,3.92l19.52,19.52C244.24,29,246,28.25,246,25.19V10.31A6.94,6.94,0,0,0,239.06,3.37Z" transform="translate(-3 -2.93)"/><path class="cls-3" d="M140.44,7.29,242.08,108.93c2.16,2.17,3.92,1.44,3.92-1.62V87.81a15.43,15.43,0,0,0-3.92-9.47L171,7.29a15.43,15.43,0,0,0-9.47-3.92h-19.5C139,3.37,138.27,5.13,140.44,7.29Z" transform="translate(-3 -2.93)"/><path class="cls-4" d="M182,7.29l60.06,60.06c2.16,2.17,3.92,1.44,3.92-1.62V47.28a15.43,15.43,0,0,0-3.92-9.48L211.57,7.29a15.43,15.43,0,0,0-9.48-3.92H183.64C180.58,3.37,179.85,5.13,182,7.29Z" transform="translate(-3 -2.93)"/><line class="cls-5" x1="243" y1="109.93" x2="133.51" y2="0.44"/><polyline class="cls-5" points="122.09 0 122.53 0.44 243 120.92"/><line class="cls-5" x1="243" y1="68.35" x2="175.09" y2="0.44"/><line class="cls-5" x1="164.11" y1="0.44" x2="243" y2="79.34"/><line class="cls-5" x1="243" y1="27.81" x2="215.63" y2="0.44"/><line class="cls-5" x1="204.64" y1="0.44" x2="243" y2="38.8"/><path class="cls-5" d="M129.76,154.31c10.21,0,17.76,3.16,24.7,9.49a1.9,1.9,0,0,1,.1,2.86l-8,8.27a1.79,1.79,0,0,1-2.55,0,20.86,20.86,0,0,0-13.78-5.21c-11.53,0-20,9.6-20,21s8.57,20.72,20.1,20.72a21.62,21.62,0,0,0,13.68-4.9,2,2,0,0,1,2.65.1l8,8.47a2,2,0,0,1-.1,2.76,35.06,35.06,0,0,1-24.8,9.9,36.75,36.75,0,1,1,0-73.49Z" transform="translate(-3 -2.93)"/><path class="cls-5" d="M162.11,157.47a1.8,1.8,0,0,1,1.73-2.65h13.58a2,2,0,0,1,1.73,1.12L196,193.2h.62l16.84-37.26a2,2,0,0,1,1.73-1.12h13.58a1.8,1.8,0,0,1,1.73,2.65l-32.05,68.69a1.94,1.94,0,0,1-1.73,1.13h-1a2,2,0,0,1-1.74-1.13Z" transform="translate(-3 -2.93)"/><path class="cls-5" d="M64.72,197.84a1.76,1.76,0,0,1,1.9,2.1c-1.64,6.67-8.53,12.29-17.06,12.28a21.36,21.36,0,0,1-15.62-6.14c-.89-.83-1.51-1.4-2.81-.7l-8.41,7.38c-.91.65-1.52,1.75-.76,2.7,5.08,6.36,15,12.23,27.57,12.23,20.85,0,38.47-18.41,32.88-41.2a3.11,3.11,0,0,0-2.73-2.21H36.92a1.77,1.77,0,0,1-1.9-2.11c1.64-6.66,8.53-12.29,17.06-12.27A21.4,21.4,0,0,1,67.71,176c.88.83,1.51,1.4,2.8.7l8.41-7.39c.92-.64,1.52-1.74.77-2.69-5.08-6.36-15-12.23-27.58-12.23-20.84,0-38.47,18.42-32.88,41.21A3.17,3.17,0,0,0,22,197.87Z" transform="translate(-3 -2.93)"/></svg>