<svg id="Layer_1" data-name="Layer 1" xmlns="http://www.w3.org/2000/svg" viewBox="0 0 595.28 841.89"><defs><style>.cls-1{fill:#1d1d1b;}.cls-2{fill:#86c597;}</style></defs><path class="cls-1" d="M24,460l17.67-11.78,1.59.22c5.44,8.84,13.37,14.06,22.66,14.06,9.07,0,14.73-4.08,14.73-10.2,0-5-3.62-9.3-20.39-15.19-24.71-9.06-32-18.81-32-33.31,0-17.46,15.18-30.6,39.66-30.6,19,0,34.23,8.84,40.34,22.44L91.51,406.51l-2-.23a20.89,20.89,0,0,0-19.49-12c-8.16,0-12.69,3.85-12.69,9.06,0,5,2.27,8.16,20.63,15.19,23.56,9.29,31.5,18.35,31.5,33.77,0,18.13-16.32,31.27-41.93,31.27C47.54,483.56,32.36,475.4,24,460Z"/><path class="cls-1" d="M126,428.49c0-32,22.21-55.3,54.85-55.3,20.85,0,38.76,8.84,49.63,27.88L208,414.21l-2-.45c-7-11.33-14.51-15.64-24.48-15.64-14.51,0-25.61,11.33-25.61,30.14,0,18.59,10.88,30.15,25.84,30.15,10.42,0,18.13-4.31,24.7-15.64l2-.46,22.21,12.92c-10.88,19.27-29,28.33-50.31,28.33C147.27,483.56,126,460.9,126,428.49Z"/><path class="cls-2" d="M541.11,410.1h-3l.09-.2A21,21,0,0,1,541.11,410.1Z"/><path class="cls-2" d="M413,345l-13.84,29.45-33.89,78.12-2.41,5.56a35.67,35.67,0,0,0-8.05,2.12l-.06,0a40.32,40.32,0,0,0-6.69,2.9l-.7.36c-.66.33-1.34.7-2,1.09l-.18.09-.41.22L341,466.84a106.89,106.89,0,0,1-17.38,6.43h0l7-15.84,5.16-11.66.15-.33L379.49,345Z"/><path class="cls-2" d="M571.3,410.1l-13.84,29.45-.68,1.52c-16.54,1.71-28.24,5.6-37,10.59l18.4-41.56Z"/><path class="cls-2" d="M538.82,377.45,525,406.9l-29.41,67.79c-9.09,12.13-16.71,22.78-39,22.78-1.15,0-2.25,0-3.31-.05l52.05-120Z"/><path class="cls-2" d="M478.11,409.9l-13.84,29.45-24.49,56.47c-15.89-3.79-17.4-13.55-22.71-22.48l27.52-63.44Z"/><path class="cls-2" d="M445.56,377.46l-13.84,29.45-24.41,56.26a45.77,45.77,0,0,0-15.39-5.55l-.8-.15-1.11-.2c-1.05-.17-2.14-.34-3.28-.49-.57-.07-1.13-.14-1.69-.19a60.09,60.09,0,0,0-7.18-.34l34.19-78.8h33.51Z"/><path class="cls-1" d="M349.25,377.5h-29l-1.89,1.34L296,443.45h-.46l-22.42-64.6-1.89-1.35H240l45.78,104s9.67-1.48,21.52-4.11Z"/><path class="cls-2" d="M390,457.27c-1.05-.17-2.14-.34-3.28-.49C387.81,456.92,388.9,457.07,390,457.27Z"/><path class="cls-1" d="M24,460l17.67-11.78,1.59.22c5.44,8.84,13.37,14.06,22.66,14.06,9.07,0,14.73-4.08,14.73-10.2,0-5-3.62-9.3-20.39-15.19-24.71-9.06-32-18.81-32-33.31,0-17.46,15.18-30.6,39.66-30.6,19,0,34.23,8.84,40.34,22.44L91.51,406.51l-2-.23a20.89,20.89,0,0,0-19.49-12c-8.16,0-12.69,3.85-12.69,9.06,0,5,2.27,8.16,20.63,15.19,23.56,9.29,31.5,18.35,31.5,33.77,0,18.13-16.32,31.27-41.93,31.27C47.54,483.56,32.36,475.4,24,460Z"/><path class="cls-1" d="M126,428.49c0-32,22.21-55.3,54.85-55.3,20.85,0,38.76,8.84,49.63,27.88L208,414.21l-2-.45c-7-11.33-14.51-15.64-24.48-15.64-14.51,0-25.61,11.33-25.61,30.14,0,18.59,10.88,30.15,25.84,30.15,10.42,0,18.13-4.31,24.7-15.64l2-.46,22.21,12.92c-10.88,19.27-29,28.33-50.31,28.33C147.27,483.56,126,460.9,126,428.49Z"/><path class="cls-2" d="M413,345l-13.84,29.45-33.89,78.12-2.41,5.56a35.67,35.67,0,0,0-8.05,2.12l-.06,0a40.32,40.32,0,0,0-6.69,2.9l-.7.36c-.66.33-1.34.7-2,1.09l-.18.09-.41.22L341,466.84a106.89,106.89,0,0,1-17.38,6.43h0l7-15.84,5.16-11.66.15-.33L379.49,345Z"/><path class="cls-2" d="M571.3,410.1l-13.84,29.45-.68,1.52c-16.54,1.71-28.24,5.6-37,10.59l18.4-41.56Z"/><path class="cls-2" d="M538.82,377.45,525,406.9l-29.41,67.79c-9.09,12.13-16.71,22.78-39,22.78-1.15,0-2.25,0-3.31-.05l52.05-120Z"/><path class="cls-2" d="M478.11,409.9l-13.84,29.45-24.49,56.47c-15.89-3.79-17.4-13.55-22.71-22.48l27.52-63.44Z"/><path class="cls-2" d="M445.56,377.46l-13.84,29.45-24.41,56.26a45.77,45.77,0,0,0-15.39-5.55l-.8-.15-1.11-.2c-1.05-.17-2.14-.34-3.28-.49-.57-.07-1.13-.14-1.69-.19a60.09,60.09,0,0,0-7.18-.34l34.19-78.8h33.51Z"/><path class="cls-1" d="M349.25,377.5h-29l-1.89,1.34L296,443.45h-.46l-22.42-64.6-1.89-1.35H240l45.78,104s9.67-1.48,21.52-4.11Z"/><path class="cls-2" d="M390,457.27c-1.05-.17-2.14-.34-3.28-.49C387.81,456.92,388.9,457.07,390,457.27Z"/></svg>